<svg width="16" height="16" viewBox="0 0 16 16" fill="none" xmlns="http://www.w3.org/2000/svg">
<path d="M10.45 14.2L4.59995 8.35003C4.5444 8.29448 4.50551 8.23892 4.48328 8.18337C4.46106 8.12781 4.44995 8.0667 4.44995 8.00003C4.44995 7.93337 4.46106 7.87226 4.48328 7.8167C4.50551 7.76114 4.5444 7.70559 4.59995 7.65003L10.45 1.80003C10.5722 1.67781 10.7277 1.6167 10.9166 1.6167C11.1055 1.6167 11.2611 1.67781 11.3833 1.80003C11.5166 1.93337 11.5833 2.0917 11.5833 2.27503C11.5833 2.45837 11.5166 2.6167 11.3833 2.75003L6.13328 8.00003L11.3833 13.25C11.5277 13.3945 11.5944 13.5556 11.5833 13.7334C11.5722 13.9111 11.5055 14.0611 11.3833 14.1834C11.25 14.3167 11.0916 14.3834 10.9083 14.3834C10.725 14.3834 10.5722 14.3223 10.45 14.2Z" fill="#FFFFFF"/>
</svg>
