<svg width="12" height="12" viewBox="0 0 12 12" fill="none" xmlns="http://www.w3.org/2000/svg">
<path d="M4.10662 8.60655C4.03995 8.52321 4.00453 8.43155 4.00037 8.33155C3.9962 8.23155 4.03162 8.14405 4.10662 8.06905L6.30662 5.86905L4.09412 3.65655C4.02745 3.58988 3.9962 3.5003 4.00037 3.3878C4.00453 3.2753 4.03995 3.18571 4.10662 3.11905C4.18995 3.03571 4.27953 2.99613 4.37537 3.0003C4.4712 3.00446 4.55662 3.04405 4.63162 3.11905L7.11912 5.60655C7.16078 5.64821 7.18995 5.68988 7.20662 5.73155C7.22328 5.77321 7.23162 5.81905 7.23162 5.86905C7.23162 5.91905 7.22328 5.96488 7.20662 6.00655C7.18995 6.04821 7.16078 6.08988 7.11912 6.13155L4.64412 8.60655C4.56912 8.68155 4.48162 8.71696 4.38162 8.7128C4.28162 8.70863 4.18995 8.67321 4.10662 8.60655V8.60655Z" fill="#478C5C"/>
</svg>
