<svg width="12" height="12" viewBox="0 0 12 12" fill="none" xmlns="http://www.w3.org/2000/svg">
<path d="M10.125 7.2625L9.2375 6.375L9.6 6.0125C9.66667 5.94583 9.75417 5.9125 9.8625 5.9125C9.97083 5.9125 10.0583 5.94583 10.125 6.0125L10.4875 6.375C10.5542 6.44167 10.5875 6.52917 10.5875 6.6375C10.5875 6.74583 10.5542 6.83333 10.4875 6.9L10.125 7.2625ZM6 10.5V9.6125L8.25625 7.35625C8.50133 7.11117 8.89867 7.11117 9.14375 7.35625C9.38883 7.60133 9.38883 7.99867 9.14375 8.24375L6.8875 10.5H6ZM1.875 7.875C1.66789 7.875 1.5 7.70711 1.5 7.5C1.5 7.29289 1.66789 7.125 1.875 7.125H4.875C5.08211 7.125 5.25 7.29289 5.25 7.5C5.25 7.70711 5.08211 7.875 4.875 7.875H1.875ZM1.875 5.8125C1.66789 5.8125 1.5 5.64461 1.5 5.4375C1.5 5.23039 1.66789 5.0625 1.875 5.0625H7C7.20711 5.0625 7.375 5.23039 7.375 5.4375C7.375 5.64461 7.20711 5.8125 7 5.8125H1.875ZM1.875 3.75C1.66789 3.75 1.5 3.58211 1.5 3.375C1.5 3.16789 1.66789 3 1.875 3H7C7.20711 3 7.375 3.16789 7.375 3.375C7.375 3.58211 7.20711 3.75 7 3.75H1.875Z" fill="#00509D"/>
</svg>
