<svg width="12" height="12" viewBox="0 0 12 12" fill="none" xmlns="http://www.w3.org/2000/svg">
<rect width="12" height="12" fill="white"/>
<path d="M6.2 5.9C6.39333 5.9 6.55833 5.83167 6.695 5.695C6.83167 5.55833 6.9 5.39333 6.9 5.2C6.9 5.00667 6.83167 4.84167 6.695 4.705C6.55833 4.56833 6.39333 4.5 6.2 4.5C6.00667 4.5 5.84167 4.56833 5.705 4.705C5.56833 4.84167 5.5 5.00667 5.5 5.2C5.5 5.39333 5.56833 5.55833 5.705 5.695C5.84167 5.83167 6.00667 5.9 6.2 5.9ZM6.2 9.21C7.08667 8.40333 7.74167 7.67167 8.165 7.015C8.58833 6.35833 8.8 5.78 8.8 5.28C8.8 4.49333 8.54833 3.85 8.045 3.35C7.54167 2.85 6.92667 2.6 6.2 2.6C5.47333 2.6 4.85833 2.85 4.355 3.35C3.85167 3.85 3.6 4.49333 3.6 5.28C3.6 5.78 3.81667 6.35833 4.25 7.015C4.68333 7.67167 5.33333 8.40333 6.2 9.21ZM6.2 10C5.12667 9.08667 4.325 8.23833 3.795 7.455C3.265 6.67167 3 5.94667 3 5.28C3 4.28 3.32167 3.48333 3.965 2.89C4.60833 2.29667 5.35333 2 6.2 2C7.04667 2 7.79167 2.29667 8.435 2.89C9.07833 3.48333 9.4 4.28 9.4 5.28C9.4 5.94667 9.135 6.67167 8.605 7.455C8.075 8.23833 7.27333 9.08667 6.2 10Z" fill="#2B2B2B"/>
</svg>
