<svg width="512" height="512" viewBox="0 0 512 512" fill="none" xmlns="http://www.w3.org/2000/svg">
<g clip-path="url(#clip0_82_144)">
<circle cx="256" cy="256" r="256" fill="white"/>
<path fill-rule="evenodd" clip-rule="evenodd" d="M285.451 438.69C292.434 432.506 302.8 422.083 306.593 410.939C309.462 402.512 309.43 393.178 307.944 383.878C303.215 354.279 283.625 337.872 263.359 327.048C254.086 322.095 243.683 317.709 233.701 313.5C221.865 308.511 210.623 303.771 202.561 298.633C187.699 289.161 178.241 275.63 174.188 263.452C170.135 251.274 165.636 232.393 174.188 222.859C178.948 217.553 208.48 218.592 237.497 219.613C260.614 220.426 283.406 221.228 293.082 218.8C300.721 216.883 306.985 211.335 313.756 205.338C326.327 194.203 340.642 181.523 368.743 187.679C395.522 193.545 415.044 206.679 426.667 220.007C423.86 128.187 348.543 54.6133 256.041 54.6133C161.762 54.6133 85.334 131.041 85.334 225.32C85.334 268.749 101.551 308.389 128.259 338.517H128.24C128.24 338.517 234.133 456.277 256.955 456.277C262.52 456.277 272.914 449.277 285.451 438.69Z" fill="#11111F"/>
</g>
<defs>
<clipPath id="clip0_82_144">
<rect width="512" height="512" fill="white"/>
</clipPath>
</defs>
</svg>
