<svg width="24" height="24" viewBox="0 0 24 24" fill="none" xmlns="http://www.w3.org/2000/svg">
<circle cx="12" cy="12" r="12" fill="white"/>
<path fill-rule="evenodd" clip-rule="evenodd" d="M13.3805 20.5636C13.7078 20.2737 14.1937 19.7851 14.3716 19.2627C14.506 18.8677 14.5045 18.4302 14.4349 17.9942C14.2132 16.6068 13.2949 15.8377 12.3449 15.3303C11.9103 15.0981 11.4226 14.8925 10.9547 14.6953C10.3999 14.4614 9.87293 14.2392 9.49502 13.9983C8.79838 13.5544 8.35506 12.9201 8.16506 12.3493C7.97507 11.7784 7.7642 10.8934 8.16506 10.4465C8.38818 10.1977 9.77248 10.2464 11.1327 10.2943C12.2163 10.3324 13.2846 10.37 13.7382 10.2562C14.0963 10.1664 14.3899 9.90626 14.7073 9.62516C15.2966 9.1032 15.9676 8.50881 17.2848 8.79738C18.5401 9.07238 19.4552 9.68803 20 10.3128C19.8684 6.00874 16.3379 2.56006 12.0019 2.56006C7.5826 2.56006 4.00003 6.14263 4.00003 10.562C4.00003 12.5976 4.76015 14.4557 6.01205 15.8679H6.01126C6.01126 15.8679 10.975 21.3879 12.0448 21.3879C12.3056 21.3879 12.7928 21.0598 13.3805 20.5636Z" fill="#11111F"/>
</svg>
