<svg width="32" height="32" viewBox="0 0 32 32" fill="none" xmlns="http://www.w3.org/2000/svg">
<rect width="32" height="32" fill="white"/>
<path fill-rule="evenodd" clip-rule="evenodd" d="M17.8407 27.418C18.2771 27.0315 18.925 26.3802 19.162 25.6837C19.3413 25.1569 19.3393 24.5736 19.2465 23.9923C18.9509 22.1424 17.7265 21.117 16.4599 20.4404C15.8804 20.1309 15.2301 19.8568 14.6062 19.5937C13.8665 19.2819 13.1639 18.9856 12.66 18.6645C11.7311 18.0725 11.14 17.2268 10.8867 16.4657C10.6334 15.7046 10.3522 14.5246 10.8867 13.9287C11.1842 13.597 13.0299 13.6619 14.8435 13.7257C16.2884 13.7766 17.7128 13.8267 18.3176 13.675C18.795 13.5552 19.1866 13.2084 19.6097 12.8336C20.3954 12.1376 21.2901 11.3451 23.0464 11.7299C24.7201 12.0966 25.9403 12.9175 26.6667 13.7505C26.4913 8.01167 21.7839 3.41333 16.0026 3.41333C10.1101 3.41333 5.33337 8.19009 5.33337 14.0825C5.33337 16.7968 6.34692 19.2743 8.01617 21.1573H8.01497C8.01497 21.1573 14.6333 28.5173 16.0597 28.5173C16.4074 28.5173 17.0571 28.0798 17.8407 27.418Z" fill="url(#paint0_linear_72_116)"/>
<defs>
<linearGradient id="paint0_linear_72_116" x1="9.70671" y1="5.44" x2="16" y2="28.5173" gradientUnits="userSpaceOnUse">
<stop stop-color="#FFF974"/>
<stop offset="0.451065" stop-color="#FFC700" stop-opacity="0.65"/>
<stop offset="1" stop-color="#FFFC00"/>
</linearGradient>
</defs>
</svg>
