<svg width="61" height="13" viewBox="0 0 61 13" fill="none" xmlns="http://www.w3.org/2000/svg">
<path d="M3.39205 10.112H8.41605V12H0.800049V10.272L5.79205 2.72H0.800049V0.831997H8.41605V2.56L3.39205 10.112Z" fill="url(#paint0_linear_57_112)"/>
<path d="M15.5068 12.112C14.4615 12.112 13.5015 11.8667 12.6268 11.376C11.7521 10.8853 11.0588 10.208 10.5468 9.344C10.0348 8.46933 9.7788 7.48266 9.7788 6.384C9.7788 5.296 10.0348 4.32 10.5468 3.456C11.0588 2.58133 11.7521 1.89866 12.6268 1.408C13.5015 0.91733 14.4615 0.671997 15.5068 0.671997C16.5628 0.671997 17.5228 0.91733 18.3868 1.408C19.2615 1.89866 19.9495 2.58133 20.4508 3.456C20.9628 4.32 21.2188 5.296 21.2188 6.384C21.2188 7.48266 20.9628 8.46933 20.4508 9.344C19.9495 10.208 19.2615 10.8853 18.3868 11.376C17.5121 11.8667 16.5521 12.112 15.5068 12.112ZM15.5068 10.112C16.1788 10.112 16.7708 9.96266 17.2828 9.664C17.7948 9.35466 18.1948 8.91733 18.4828 8.352C18.7708 7.78666 18.9148 7.13066 18.9148 6.384C18.9148 5.63733 18.7708 4.98666 18.4828 4.432C18.1948 3.86666 17.7948 3.43466 17.2828 3.136C16.7708 2.83733 16.1788 2.688 15.5068 2.688C14.8348 2.688 14.2375 2.83733 13.7148 3.136C13.2028 3.43466 12.8028 3.86666 12.5148 4.432C12.2268 4.98666 12.0828 5.63733 12.0828 6.384C12.0828 7.13066 12.2268 7.78666 12.5148 8.352C12.8028 8.91733 13.2028 9.35466 13.7148 9.664C14.2375 9.96266 14.8348 10.112 15.5068 10.112Z" fill="url(#paint1_linear_57_112)"/>
<path d="M28.0693 12.112C27.024 12.112 26.064 11.8667 25.1893 11.376C24.3146 10.8853 23.6213 10.208 23.1093 9.344C22.5973 8.46933 22.3413 7.48266 22.3413 6.384C22.3413 5.296 22.5973 4.32 23.1093 3.456C23.6213 2.58133 24.3146 1.89866 25.1893 1.408C26.064 0.91733 27.024 0.671997 28.0693 0.671997C29.1253 0.671997 30.0853 0.91733 30.9493 1.408C31.824 1.89866 32.512 2.58133 33.0133 3.456C33.5253 4.32 33.7813 5.296 33.7813 6.384C33.7813 7.48266 33.5253 8.46933 33.0133 9.344C32.512 10.208 31.824 10.8853 30.9493 11.376C30.0746 11.8667 29.1146 12.112 28.0693 12.112ZM28.0693 10.112C28.7413 10.112 29.3333 9.96266 29.8453 9.664C30.3573 9.35466 30.7573 8.91733 31.0453 8.352C31.3333 7.78666 31.4773 7.13066 31.4773 6.384C31.4773 5.63733 31.3333 4.98666 31.0453 4.432C30.7573 3.86666 30.3573 3.43466 29.8453 3.136C29.3333 2.83733 28.7413 2.688 28.0693 2.688C27.3973 2.688 26.8 2.83733 26.2773 3.136C25.7653 3.43466 25.3653 3.86666 25.0773 4.432C24.7893 4.98666 24.6453 5.63733 24.6453 6.384C24.6453 7.13066 24.7893 7.78666 25.0773 8.352C25.3653 8.91733 25.7653 9.35466 26.2773 9.664C26.8 9.96266 27.3973 10.112 28.0693 10.112Z" fill="url(#paint2_linear_57_112)"/>
<path d="M47.6238 0.831997V12H45.3838V4.736L42.3918 12H40.6958L37.6878 4.736V12H35.4478V0.831997H37.9918L41.5438 9.136L45.0958 0.831997H47.6238Z" fill="url(#paint3_linear_57_112)"/>
<path d="M52.0784 0.831997V12H49.8384V0.831997H52.0784Z" fill="url(#paint4_linear_57_112)"/>
<path d="M56.5316 2.64V5.44H60.2915V7.216H56.5316V10.176H60.7715V12H54.2915V0.815996H60.7715V2.64H56.5316Z" fill="url(#paint5_linear_57_112)"/>
<defs>
<linearGradient id="paint0_linear_57_112" x1="61" y1="6.00002" x2="-18.5" y2="6" gradientUnits="userSpaceOnUse">
<stop offset="0.110333" stop-color="#478C5C"/>
<stop offset="0.792256" stop-color="#BACC81"/>
<stop offset="1" stop-color="#CDD193"/>
</linearGradient>
<linearGradient id="paint1_linear_57_112" x1="61" y1="6.00002" x2="-18.5" y2="6" gradientUnits="userSpaceOnUse">
<stop offset="0.110333" stop-color="#478C5C"/>
<stop offset="0.792256" stop-color="#BACC81"/>
<stop offset="1" stop-color="#CDD193"/>
</linearGradient>
<linearGradient id="paint2_linear_57_112" x1="61" y1="6.00002" x2="-18.5" y2="6" gradientUnits="userSpaceOnUse">
<stop offset="0.110333" stop-color="#478C5C"/>
<stop offset="0.792256" stop-color="#BACC81"/>
<stop offset="1" stop-color="#CDD193"/>
</linearGradient>
<linearGradient id="paint3_linear_57_112" x1="61" y1="6.00002" x2="-18.5" y2="6" gradientUnits="userSpaceOnUse">
<stop offset="0.110333" stop-color="#478C5C"/>
<stop offset="0.792256" stop-color="#BACC81"/>
<stop offset="1" stop-color="#CDD193"/>
</linearGradient>
<linearGradient id="paint4_linear_57_112" x1="61" y1="6.00002" x2="-18.5" y2="6" gradientUnits="userSpaceOnUse">
<stop offset="0.110333" stop-color="#478C5C"/>
<stop offset="0.792256" stop-color="#BACC81"/>
<stop offset="1" stop-color="#CDD193"/>
</linearGradient>
<linearGradient id="paint5_linear_57_112" x1="61" y1="6.00002" x2="-18.5" y2="6" gradientUnits="userSpaceOnUse">
<stop offset="0.110333" stop-color="#478C5C"/>
<stop offset="0.792256" stop-color="#BACC81"/>
<stop offset="1" stop-color="#CDD193"/>
</linearGradient>
</defs>
</svg>
