<svg width="32" height="32" viewBox="0 0 32 32" fill="none" xmlns="http://www.w3.org/2000/svg">
<rect width="32" height="32" fill="white"/>
<path fill-rule="evenodd" clip-rule="evenodd" d="M17.8407 27.4182C18.2771 27.0317 18.925 26.3803 19.162 25.6838C19.3413 25.1571 19.3393 24.5737 19.2465 23.9924C18.9509 22.1425 17.7265 21.1171 16.4599 20.4406C15.8804 20.131 15.2301 19.8569 14.6062 19.5939C13.8665 19.282 13.1639 18.9858 12.66 18.6646C11.7311 18.0726 11.14 17.227 10.8867 16.4658C10.6334 15.7047 10.3522 14.5247 10.8867 13.9288C11.1842 13.5971 13.0299 13.6621 14.8435 13.7259C16.2884 13.7767 17.7128 13.8268 18.3176 13.6751C18.795 13.5553 19.1866 13.2085 19.6097 12.8337C20.3954 12.1378 21.2901 11.3452 23.0464 11.73C24.7201 12.0967 25.9403 12.9176 26.6667 13.7506C26.4913 8.01179 21.7839 3.41345 16.0026 3.41345C10.1101 3.41345 5.33337 8.19022 5.33337 14.0827C5.33337 16.7969 6.34692 19.2744 8.01617 21.1574H8.01497C8.01497 21.1574 14.6333 28.5174 16.0597 28.5174C16.4074 28.5174 17.0571 28.0799 17.8407 27.4182Z" fill="url(#paint0_linear_51_249)"/>
<defs>
<linearGradient id="paint0_linear_51_249" x1="9.70671" y1="5.44012" x2="16" y2="28.5175" gradientUnits="userSpaceOnUse">
<stop stop-color="#CDD193"/>
<stop offset="0.451065" stop-color="#BACC81"/>
<stop offset="1" stop-color="#478C5C"/>
</linearGradient>
</defs>
</svg>
