<svg width="61" height="13" viewBox="0 0 61 13" fill="none" xmlns="http://www.w3.org/2000/svg">
<path d="M3.39205 10.1121H8.41605V12.0001H0.800049V10.2721L5.79205 2.72012H0.800049V0.832119H8.41605V2.56012L3.39205 10.1121Z" fill="#2B2B2B"/>
<path d="M15.5068 12.1121C14.4615 12.1121 13.5015 11.8668 12.6268 11.3761C11.7521 10.8855 11.0588 10.2081 10.5468 9.34412C10.0348 8.46945 9.7788 7.48279 9.7788 6.38412C9.7788 5.29612 10.0348 4.32012 10.5468 3.45612C11.0588 2.58145 11.7521 1.89878 12.6268 1.40812C13.5015 0.917452 14.4615 0.672119 15.5068 0.672119C16.5628 0.672119 17.5228 0.917452 18.3868 1.40812C19.2615 1.89878 19.9495 2.58145 20.4508 3.45612C20.9628 4.32012 21.2188 5.29612 21.2188 6.38412C21.2188 7.48279 20.9628 8.46945 20.4508 9.34412C19.9495 10.2081 19.2615 10.8855 18.3868 11.3761C17.5121 11.8668 16.5521 12.1121 15.5068 12.1121ZM15.5068 10.1121C16.1788 10.1121 16.7708 9.96279 17.2828 9.66412C17.7948 9.35479 18.1948 8.91745 18.4828 8.35212C18.7708 7.78679 18.9148 7.13079 18.9148 6.38412C18.9148 5.63745 18.7708 4.98678 18.4828 4.43212C18.1948 3.86679 17.7948 3.43479 17.2828 3.13612C16.7708 2.83745 16.1788 2.68812 15.5068 2.68812C14.8348 2.68812 14.2375 2.83745 13.7148 3.13612C13.2028 3.43479 12.8028 3.86679 12.5148 4.43212C12.2268 4.98678 12.0828 5.63745 12.0828 6.38412C12.0828 7.13079 12.2268 7.78679 12.5148 8.35212C12.8028 8.91745 13.2028 9.35479 13.7148 9.66412C14.2375 9.96279 14.8348 10.1121 15.5068 10.1121Z" fill="#2B2B2B"/>
<path d="M28.0693 12.1121C27.024 12.1121 26.064 11.8668 25.1893 11.3761C24.3146 10.8855 23.6213 10.2081 23.1093 9.34412C22.5973 8.46945 22.3413 7.48279 22.3413 6.38412C22.3413 5.29612 22.5973 4.32012 23.1093 3.45612C23.6213 2.58145 24.3146 1.89878 25.1893 1.40812C26.064 0.917452 27.024 0.672119 28.0693 0.672119C29.1253 0.672119 30.0853 0.917452 30.9493 1.40812C31.824 1.89878 32.512 2.58145 33.0133 3.45612C33.5253 4.32012 33.7813 5.29612 33.7813 6.38412C33.7813 7.48279 33.5253 8.46945 33.0133 9.34412C32.512 10.2081 31.824 10.8855 30.9493 11.3761C30.0746 11.8668 29.1146 12.1121 28.0693 12.1121ZM28.0693 10.1121C28.7413 10.1121 29.3333 9.96279 29.8453 9.66412C30.3573 9.35479 30.7573 8.91745 31.0453 8.35212C31.3333 7.78679 31.4773 7.13079 31.4773 6.38412C31.4773 5.63745 31.3333 4.98678 31.0453 4.43212C30.7573 3.86679 30.3573 3.43479 29.8453 3.13612C29.3333 2.83745 28.7413 2.68812 28.0693 2.68812C27.3973 2.68812 26.8 2.83745 26.2773 3.13612C25.7653 3.43479 25.3653 3.86679 25.0773 4.43212C24.7893 4.98678 24.6453 5.63745 24.6453 6.38412C24.6453 7.13079 24.7893 7.78679 25.0773 8.35212C25.3653 8.91745 25.7653 9.35479 26.2773 9.66412C26.8 9.96279 27.3973 10.1121 28.0693 10.1121Z" fill="#2B2B2B"/>
<path d="M47.6238 0.832119V12.0001H45.3838V4.73612L42.3918 12.0001H40.6958L37.6878 4.73612V12.0001H35.4478V0.832119H37.9918L41.5438 9.13612L45.0958 0.832119H47.6238Z" fill="#2B2B2B"/>
<path d="M52.0784 0.832119V12.0001H49.8384V0.832119H52.0784Z" fill="#2B2B2B"/>
<path d="M56.5316 2.64012V5.44012H60.2915V7.21612H56.5316V10.1761H60.7715V12.0001H54.2915V0.816118H60.7715V2.64012H56.5316Z" fill="#2B2B2B"/>
</svg>
