<svg width="60" height="12" viewBox="0 0 60 12" fill="none" xmlns="http://www.w3.org/2000/svg">
<path d="M2.592 9.44H7.616V11.328H0V9.6L4.992 2.048H0V0.16H7.616V1.888L2.592 9.44Z" fill="white"/>
<path d="M14.7067 11.44C13.6614 11.44 12.7014 11.1947 11.8267 10.704C10.9521 10.2133 10.2587 9.536 9.74675 8.672C9.23475 7.79733 8.97875 6.81067 8.97875 5.712C8.97875 4.624 9.23475 3.648 9.74675 2.784C10.2587 1.90933 10.9521 1.22667 11.8267 0.735999C12.7014 0.245333 13.6614 0 14.7067 0C15.7628 0 16.7228 0.245333 17.5868 0.735999C18.4614 1.22667 19.1494 1.90933 19.6508 2.784C20.1628 3.648 20.4188 4.624 20.4188 5.712C20.4188 6.81067 20.1628 7.79733 19.6508 8.672C19.1494 9.536 18.4614 10.2133 17.5868 10.704C16.7121 11.1947 15.7521 11.44 14.7067 11.44ZM14.7067 9.44C15.3788 9.44 15.9708 9.29067 16.4827 8.992C16.9948 8.68267 17.3948 8.24533 17.6828 7.68C17.9708 7.11467 18.1147 6.45867 18.1147 5.712C18.1147 4.96533 17.9708 4.31467 17.6828 3.76C17.3948 3.19467 16.9948 2.76267 16.4827 2.464C15.9708 2.16533 15.3788 2.016 14.7067 2.016C14.0347 2.016 13.4374 2.16533 12.9148 2.464C12.4028 2.76267 12.0028 3.19467 11.7148 3.76C11.4268 4.31467 11.2828 4.96533 11.2828 5.712C11.2828 6.45867 11.4268 7.11467 11.7148 7.68C12.0028 8.24533 12.4028 8.68267 12.9148 8.992C13.4374 9.29067 14.0347 9.44 14.7067 9.44Z" fill="white"/>
<path d="M27.2693 11.44C26.2239 11.44 25.2639 11.1947 24.3893 10.704C23.5146 10.2133 22.8212 9.536 22.3092 8.672C21.7972 7.79733 21.5413 6.81067 21.5413 5.712C21.5413 4.624 21.7972 3.648 22.3092 2.784C22.8212 1.90933 23.5146 1.22667 24.3893 0.735999C25.2639 0.245333 26.2239 0 27.2693 0C28.3253 0 29.2853 0.245333 30.1493 0.735999C31.0239 1.22667 31.7119 1.90933 32.2133 2.784C32.7253 3.648 32.9813 4.624 32.9813 5.712C32.9813 6.81067 32.7253 7.79733 32.2133 8.672C31.7119 9.536 31.0239 10.2133 30.1493 10.704C29.2746 11.1947 28.3146 11.44 27.2693 11.44ZM27.2693 9.44C27.9413 9.44 28.5333 9.29067 29.0452 8.992C29.5573 8.68267 29.9573 8.24533 30.2453 7.68C30.5333 7.11467 30.6772 6.45867 30.6772 5.712C30.6772 4.96533 30.5333 4.31467 30.2453 3.76C29.9573 3.19467 29.5573 2.76267 29.0452 2.464C28.5333 2.16533 27.9413 2.016 27.2693 2.016C26.5973 2.016 25.9999 2.16533 25.4773 2.464C24.9653 2.76267 24.5653 3.19467 24.2773 3.76C23.9893 4.31467 23.8453 4.96533 23.8453 5.712C23.8453 6.45867 23.9893 7.11467 24.2773 7.68C24.5653 8.24533 24.9653 8.68267 25.4773 8.992C25.9999 9.29067 26.5973 9.44 27.2693 9.44Z" fill="white"/>
<path d="M46.8237 0.16V11.328H44.5838V4.064L41.5918 11.328H39.8958L36.8878 4.064V11.328H34.6478V0.16H37.1917L40.7438 8.464L44.2957 0.16H46.8237Z" fill="white"/>
<path d="M51.2784 0.16V11.328H49.0384V0.16H51.2784Z" fill="white"/>
<path d="M55.7315 1.968V4.768H59.4915V6.544H55.7315V9.504H59.9715V11.328H53.4915V0.143999H59.9715V1.968H55.7315Z" fill="white"/>
</svg>
